<svg width="1440" height="299" viewBox="0 0 1440 299" fill="none" xmlns="http://www.w3.org/2000/svg">
<g clip-path="url(#clip0_1982_1141)">
<rect y="-50" width="1440" height="400" fill="url(#paint0_linear_1982_1141)"/>
<g opacity="0.7">
<path fill-rule="evenodd" clip-rule="evenodd" d="M927.5 329.648C937.766 282.37 1017.04 188.031 1059.91 152.427C1099.74 119.34 1120.06 106.675 1177.5 94.9326C1232.59 83.6696 1318.25 99.0959 1375 103.903C1447.73 110.063 1551.64 74.3525 1588.88 121.456C1627.19 169.912 1553.85 226.712 1532.8 280.751C1518.8 316.673 1508.17 350.924 1486.35 384.597C1459.2 426.495 1449.47 485.616 1390.44 500.451C1331.48 515.265 1281.69 460.404 1220.68 451.358C1145.6 440.224 1052.14 481.798 997.002 442.109C943.602 403.671 915.623 384.347 927.5 329.648Z" fill="url(#paint1_linear_1982_1141)" fill-opacity="0.3"/>
<path fill-rule="evenodd" clip-rule="evenodd" d="M1039.13 349.119C1040.37 307.028 1053.74 265.723 1085.25 230.825C1114.53 198.393 1159.8 177.668 1207.89 162.215C1254.01 147.392 1293.81 163.199 1344 162.215C1408.32 160.953 1500.59 118.073 1540.68 155.687C1581.93 194.38 1527.35 250.505 1517.83 299.465C1511.5 332.01 1507.83 362.796 1494.32 394.096C1477.52 433.041 1478.68 485.395 1429.71 503.685C1380.8 521.95 1328.51 478.728 1273.93 476.409C1206.75 473.555 1132.17 518.258 1077.7 488.729C1024.95 460.131 1037.71 397.818 1039.13 349.119Z" fill="url(#paint2_linear_1982_1141)" fill-opacity="0.4"/>
<path fill-rule="evenodd" clip-rule="evenodd" d="M1138.13 342.229C1153.45 303.639 1179.72 268.061 1220.54 241.811C1258.49 217.417 1307.23 206.831 1356.79 201.638C1404.33 196.657 1449.84 204.353 1496.46 212.9C1556.21 223.856 1641.64 216.076 1665.94 258.322C1690.93 301.78 1621.67 343.262 1596.38 386.624C1579.56 415.448 1565.8 443.151 1542.79 469.474C1514.15 502.228 1497.57 550.734 1446.24 558.376C1394.97 566.009 1361.32 516.292 1311.76 503.869C1250.76 488.579 1166.9 515.757 1126.62 478.259C1087.61 441.944 1120.39 386.876 1138.13 342.229Z" fill="url(#paint3_linear_1982_1141)" fill-opacity="0.6"/>
</g>
<g opacity="0.5">
<path fill-rule="evenodd" clip-rule="evenodd" d="M43 192.108C-13.417 169.4 -91.4973 207.115 -122.5 165.198C-151.311 126.244 -160.612 44.6092 -156.682 0.195023C-152.913 -42.4049 -129.881 -80.1685 -105.252 -118.689C-73.6885 -168.054 -65.0909 -244.326 6.63529 -255.234C80.4193 -266.456 128.261 -196.084 189.698 -163.545C230.539 -141.915 270.367 -123.208 305.807 -96.787C349.903 -63.9116 421.468 -37.709 420.926 8.84409C420.385 55.3316 334.746 72.5761 303.366 112.714C264.745 162.117 286.756 241.729 218.553 267.706C152.499 292.865 108.273 218.379 43 192.108Z" fill="url(#paint4_linear_1982_1141)" fill-opacity="0.3"/>
<path fill-rule="evenodd" clip-rule="evenodd" d="M130 156.975C77.1864 142.346 13.321 143.549 -20.5 109.883C-51.931 78.596 -50.7568 74.6482 -54.5752 35.6265C-58.2382 -1.80106 -44.3437 -36.7732 -29.1825 -72.5489C-9.75191 -118.397 -14.6996 -185.577 45.9618 -201.606C108.365 -218.094 161.481 -161.19 220.268 -138.461C259.346 -123.35 297.068 -110.693 332.225 -90.9203C375.971 -66.3179 442.541 -50.025 449.657 -9.45101C456.763 31.0673 385.024 53.8786 364.249 91.6783C338.681 138.202 370.818 205.501 315.679 234.327C262.279 262.244 191.104 173.901 130 156.975Z" fill="url(#paint5_linear_1982_1141)" fill-opacity="0.4"/>
<path fill-rule="evenodd" clip-rule="evenodd" d="M167.5 93.0639C123.721 69.6206 11.8413 73.3034 -8.00012 35.88C-26.4388 1.10235 85.364 9.05234 95 -27.6575C104.243 -62.8673 80.9529 -62.5497 107 -92.69C140.382 -131.316 181.646 -89.3365 243 -92.69C306.114 -96.1401 300.736 -178.991 356.14 -165.456C417.702 -150.417 330.381 -66.3471 356.14 -41.4862C388.19 -10.5521 531.325 -42.0129 524.206 -3.24956C517.098 35.4605 443.239 42.9825 411.332 73.9319C372.062 112.023 379.01 180.15 318.434 196.348C259.769 212.034 218.149 120.188 167.5 93.0639Z" fill="url(#paint6_linear_1982_1141)" fill-opacity="0.6"/>
</g>
</g>
<defs>
<linearGradient id="paint0_linear_1982_1141" x1="720" y1="-50" x2="720" y2="350" gradientUnits="userSpaceOnUse">
<stop offset="0.9999" stop-color="#1E3448"/>
<stop offset="1" stop-color="#1E3448" stop-opacity="0"/>
</linearGradient>
<linearGradient id="paint1_linear_1982_1141" x1="1498.68" y1="444.148" x2="1073.3" y2="187.426" gradientUnits="userSpaceOnUse">
<stop stop-color="#9EE6F7" stop-opacity="0"/>
<stop offset="1" stop-color="#9EE6F7" stop-opacity="0.46"/>
</linearGradient>
<linearGradient id="paint2_linear_1982_1141" x1="1510.69" y1="455.075" x2="1090.61" y2="290.592" gradientUnits="userSpaceOnUse">
<stop stop-color="#9EE6F7" stop-opacity="0"/>
<stop offset="1" stop-color="#9EE6F7" stop-opacity="0.46"/>
</linearGradient>
<linearGradient id="paint3_linear_1982_1141" x1="1537.32" y1="528.8" x2="1226.12" y2="272.69" gradientUnits="userSpaceOnUse">
<stop stop-color="#005AE2"/>
<stop offset="1" stop-color="#73E6FF" stop-opacity="0.38"/>
</linearGradient>
<linearGradient id="paint4_linear_1982_1141" x1="396.928" y1="-77.6338" x2="140.688" y2="285.345" gradientUnits="userSpaceOnUse">
<stop stop-color="#9EE6F7" stop-opacity="0"/>
<stop offset="1" stop-color="#9EE6F7" stop-opacity="0.46"/>
</linearGradient>
<linearGradient id="paint5_linear_1982_1141" x1="414.67" y1="-82.5462" x2="238.044" y2="250.014" gradientUnits="userSpaceOnUse">
<stop stop-color="#9EE6F7" stop-opacity="0"/>
<stop offset="1" stop-color="#9EE6F7" stop-opacity="0.46"/>
</linearGradient>
<linearGradient id="paint6_linear_1982_1141" x1="516.586" y1="-77.2588" x2="255.452" y2="208.884" gradientUnits="userSpaceOnUse">
<stop stop-color="#005AE2"/>
<stop offset="1" stop-color="#73E6FF" stop-opacity="0.38"/>
</linearGradient>
<clipPath id="clip0_1982_1141">
<rect width="1440" height="299" fill="white"/>
</clipPath>
</defs>
</svg>
